<svg version="1.1" viewBox="0 0 1000 1000" xmlns="http://www.w3.org/2000/svg"
    xmlns:xlink="http://www.w3.org/1999/xlink">
    <path
        d="m456 555-71 31s9.9-65 2.7-71c-30-2.7-92-27-92-27s74-37 84-53c-39 0-135-35-135-35s85-38 119-75c-145-88-100-51-151-76 0 0 95-33 166-28-11-75-73-147-73-147s146 40 158 53c1.6-43 80-146 80-146s13 156 30 172c58-30 149-39 149-39s-66 93-59 125c41-8.9 123 43 123 43-28 19-71 56-84 57 24 32 99 56 99 56s-57 33-77 34c-4.1 6.7 40 55 40 55l-64 3.6 24 47c-52-8-270 22-270 22z"
        fill="#b0d9ef" stroke="#000" stroke-width="4" />
    <path
        d="m497 176c89-16 144 66 144 66 38 114 57 195 51 278-1.6 44-55 114-105 115-92 0.53-121-37-139-66-15-27-50-116-58-276 0 0 6.9-97 107-117z"
        fill="#dcd0c4" stroke="#000" stroke-width="4" />
    <g stroke="#000" stroke-width="4">
        <path d="m527 409s12 69 27 67c19-3.2 8.1-73 8.1-73" fill="none" />
        <path d="m449 309c41-9.5 69 14 74 41 4.7 26-11 61-41 68-37 7.6-67-6.1-72-40-6.5-32 0.67-61 40-70z"
            fill="#fff" />
        <path d="m587 281c41-9.5 69 14 74 41 4.7 26-11 61-41 68-37 7.6-67-6.1-72-40-6.5-32 0.67-61 40-70z"
            fill="#fff" />
    </g>
    <path d="m492 366 16 11" fill="none" stroke="#000" stroke-linecap="round" stroke-width="4" />
    <g transform="translate(.2 .13)">
        <path d="m496 381 6.5-18" fill="none" stroke="#000" stroke-linecap="round" stroke-width="4" />
        <path d="m509 369-18 6.5" fill="none" stroke="#000" stroke-linecap="round" stroke-width="4" />
    </g>
    <g transform="translate(140 -31)">
        <path d="m492 366 16 11" fill="none" stroke="#000" stroke-linecap="round" stroke-width="4" />
        <g transform="translate(.2 .13)">
            <path d="m496 381 6.5-18" fill="none" stroke="#000" stroke-linecap="round" stroke-width="4" />
            <path d="m509 369-18 6.5" fill="none" stroke="#000" stroke-linecap="round" stroke-width="4" />
        </g>
    </g>
    <g fill="none" stroke="#000" stroke-linecap="round">
        <path d="m419 428c14 20 40 29 93 0.27" stroke-width="2" />
        <path d="m584 416c35 18 85-18 86-26" stroke-width="2" />
        <path d="m477 546c48-34 105-47 177-40" stroke-width="4" />
    </g>
    <path d="m527 520c-3.6 4.6 8.8 18 22 19 10-1.6 11 34 26 32 10-4 3.4-33 7.9-33 6.9-1 11-27 7.7-31" fill="#dcffea"
        stroke="#000" stroke-width="4" />
    <path d="m407 292c12 12 59-34 104-44s110 22 114 6.7-85-31-125-23-104 49-93 60z" fill="#b0d9ef" stroke="#000"
        stroke-linecap="round" stroke-linejoin="round" stroke-width="4" />
</svg>